HIERARCHY
ROOT root
{
	OFFSET	0	13.1	24.9
	CHANNELS 6  Xposition Yposition Zposition Xrotation Yrotation Zrotation
	JOINT spine_1
	{
		OFFSET	0	9.99999	0
		CHANNELS 3  Xrotation Yrotation Zrotation
		JOINT spine_2
		{
			OFFSET	0	112	-10
			CHANNELS 3  Xrotation Yrotation Zrotation
			JOINT spine_3
			{
				OFFSET	0	206.5	19.3
				CHANNELS 3  Xrotation Yrotation Zrotation
				JOINT spine_4
				{
					OFFSET	0	110.4	14.6
					CHANNELS 3  Xrotation Yrotation Zrotation
					JOINT neck_1
					{
						OFFSET	0	71.8	-50.3
						CHANNELS 3  Xrotation Yrotation Zrotation
						JOINT neck_2
						{
							OFFSET	0	86.2	-25.8
							CHANNELS 3  Xrotation Yrotation Zrotation
							JOINT head_ee
							{
								OFFSET	0	179.8	-8.7
								CHANNELS 3  Xrotation Yrotation Zrotation
								End Site
								{
									OFFSET	1	0	0
								}
							}
						}
					}
					JOINT left_clavicle
					{
						OFFSET	-43.2	22.4	-70.8
						CHANNELS 3  Xrotation Yrotation Zrotation
						JOINT left_shoulder
						{
							OFFSET	-93.9	-5.79999	48.7
							CHANNELS 3  Xrotation Yrotation Zrotation
							JOINT left_elbow
							{
								OFFSET	-291.4	-30.8	15.2
								CHANNELS 3  Xrotation Yrotation Zrotation
								JOINT left_lowarm_twist
								{
									OFFSET	-110.7	-3.89999	13.6
									CHANNELS 3  Xrotation Yrotation Zrotation
									JOINT left_hand
									{
										OFFSET	-110.7	-3.89999	13.6
										CHANNELS 3  Xrotation Yrotation Zrotation
										JOINT left_ee
										{
											OFFSET	-80.8	-5.10001	12.1
											CHANNELS 3  Xrotation Yrotation Zrotation
											End Site
											{
												OFFSET	1	0	0
											}
										}
									}
								}
							}
						}
					}
					JOINT right_clavicle
					{
						OFFSET	43.2	22.4	-70.8
						CHANNELS 3  Xrotation Yrotation Zrotation
						JOINT right_shoulder
						{
							OFFSET	93.9	-5.79999	48.7
							CHANNELS 3  Xrotation Yrotation Zrotation
							JOINT right_elbow
							{
								OFFSET	291.4	-30.8	15.2
								CHANNELS 3  Xrotation Yrotation Zrotation
								JOINT right_lowarm_twist
								{
									OFFSET	110.7	-3.89999	13.6
									CHANNELS 3  Xrotation Yrotation Zrotation
									JOINT right_hand
									{
										OFFSET	110.7	-3.89999	13.6
										CHANNELS 3  Xrotation Yrotation Zrotation
										JOINT right_ee
										{
											OFFSET	80.8	-5.10001	12.1
											CHANNELS 3  Xrotation Yrotation Zrotation
											End Site
											{
												OFFSET	1	0	0
											}
										}
									}
								}
							}
						}
					}
				}
			}
		}
	}
	JOINT left_hip
	{
		OFFSET	-82.8	-127.5	0.300001
		CHANNELS 3  Xrotation Yrotation Zrotation
		JOINT left_knee
		{
			OFFSET	-28.2	-396.7	2.2
			CHANNELS 3  Xrotation Yrotation Zrotation
			JOINT left_ankle
			{
				OFFSET	-11.7	-411.3	35.4
				CHANNELS 3  Xrotation Yrotation Zrotation
				JOINT left_toes
				{
					OFFSET	0	-60	-88.6
					CHANNELS 3  Xrotation Yrotation Zrotation
					JOINT left_foot_ee
					{
						OFFSET	-22.5	-16.5	-42.2
						CHANNELS 3  Xrotation Yrotation Zrotation
						End Site
						{
							OFFSET	1	0	0
						}
					}
				}
			}
		}
	}
	JOINT right_hip
	{
		OFFSET	82.8	-127.5	0.300001
		CHANNELS 3  Xrotation Yrotation Zrotation
		JOINT right_knee
		{
			OFFSET	28.2	-396.7	2.2
			CHANNELS 3  Xrotation Yrotation Zrotation
			JOINT right_ankle
			{
				OFFSET	11.7	-411.3	35.4
				CHANNELS 3  Xrotation Yrotation Zrotation
				JOINT right_toes
				{
					OFFSET	0	-60	-88.6
					CHANNELS 3  Xrotation Yrotation Zrotation
					JOINT right_foot_ee
					{
						OFFSET	22.5	-16.5	-42.2
						CHANNELS 3  Xrotation Yrotation Zrotation
						End Site
						{
							OFFSET	1	0	0
						}
					}
				}
			}
		}
	}
}
MOTION
Frames: 6
Frame Time: 0.02
1585.25 665.206 -1564.72 -152.806 82.3025 155.601 1.06025 0.367287 -1.03446 1.06074 0.432365 -1.009 1.05305 0.618278 -0.907061 1.0522 0.467273 -0.993314 -6.99046 9.561 2.86913 -6.97564 15.704 4.8048 -0.0 0.0 -0.0 -1.17748 20.3339 0.652336 -14.2259 -34.1241 72.2629 0.649889 -17.8453 0.102034 -46.0201 -3.61294 4.45874 1.57401 9.24036 14.1147 -0.0 0.0 -0.0 12.2607 2.6035 -24.6126 -4.91274 18.7591 -60.8123 0.735014 20.0068 -0.129649 -85.1897 8.47563 -5.17988 -12.361 -33.9025 67.6122 0.0 0.0 0.0 17.1811 1.28208 -10.196 -13.0203 0.313492 1.96927 37.0854 -16.8495 -4.96039 -3.21303 0.0 0.0 -0.0 0.0 -0.0 -3.88993 -15.5896 -8.30169 -14.8299 -0.321385 -2.24679 39.315 5.46535 4.87929 -1.81853 0.0 0.0 0.0 0.0 0.0 
1570.74 664.818 -1565.07 -152.263 83.5626 155.195 1.22684 0.407957 -0.944468 1.22722 0.467227 -0.916598 1.21964 0.632365 -0.811526 1.21906 0.496269 -0.901205 -7.73264 9.49837 3.11859 -7.73178 15.5045 5.12902 -0.0 0.0 -0.0 -1.73784 21.2076 -0.0253925 -15.8022 -32.5365 72.2244 0.496565 -13.8197 0.0601778 -45.0713 -3.50592 4.40064 1.62667 9.74611 14.6478 -0.0 0.0 -0.0 12.4939 2.72485 -25.1333 -3.11051 19.2925 -60.4667 0.815585 21.9994 -0.158532 -84.9505 8.44574 -5.1858 -12.3177 -33.7737 67.3318 0.0 0.0 0.0 19.307 0.122318 -10.3365 -17.5422 0.316798 2.66287 36.4565 -15.841 -4.86567 -4.09049 0.0 0.0 -0.0 0.0 -0.0 -5.72629 -15.8372 -8.97201 -13.4268 -0.316028 -2.03159 36.7696 5.20141 4.64515 -2.64301 0.0 0.0 0.0 0.0 0.0 
1554.24 665.013 -1567.44 -144.02 84.7662 147.12 1.36443 0.521888 -0.928416 1.36472 0.579905 -0.893329 1.35553 0.736782 -0.76908 1.35522 0.606078 -0.875784 -8.66179 9.49428 3.37607 -8.6785 15.436 5.49513 -0.0 0.0 -0.0 -2.12195 22.0871 -0.42612 -17.4513 -31.0941 71.8889 0.379117 -10.6366 0.0352919 -44.3666 -3.42707 4.35634 1.65228 10.2423 14.9957 -0.0 0.0 -0.0 12.8749 2.75616 -25.9793 -0.455122 19.7164 -60.7721 0.899728 24.0222 -0.191429 -84.6722 8.41093 -5.19252 -12.2963 -33.7206 67.151 0.0 0.0 0.0 22.4449 -0.896357 -10.5408 -21.3564 0.277053 3.24666 35.8425 -15.1435 -4.78355 -4.89257 0.0 0.0 -0.0 0.0 -0.0 -7.31608 -16.1409 -9.24271 -12.0036 -0.305212 -1.8135 34.9581 5.02886 4.47018 -3.20436 0.0 0.0 0.0 0.0 0.0 
1548.43 661.342 -1562.62 -137.417 85.1459 140.477 1.68553 0.223628 -0.852614 1.68589 0.277427 -0.836657 1.68178 0.424623 -0.772439 1.68107 0.297306 -0.829802 -9.88435 8.86396 3.54583 -9.91607 14.2871 5.65472 -0.0 0.0 -0.0 -1.80016 23.3517 0.233334 -19.8822 -29.8597 72.381 0.196807 -5.56846 0.00957124 -44.019 -3.38837 4.33414 2.08996 10.613 18.0589 -0.0 0.0 -0.0 12.6634 3.003 -25.5263 2.52127 20.2995 -62.116 0.917881 24.4505 -0.198881 -83.9906 8.32552 -5.20826 -12.2671 -33.6361 66.9555 0.0 0.0 0.0 25.9161 -1.71351 -10.4047 -25.0849 0.200736 3.81362 31.8973 -14.8758 -4.37058 -5.94491 0.0 0.0 -0.0 0.0 -0.0 -9.28742 -14.9563 -9.11211 -8.11588 -0.248101 -1.2198 34.9227 6.54624 4.49042 -2.294 0.0 0.0 0.0 0.0 0.0 
1544.36 661.676 -1566.65 -134.017 85.9388 136.996 1.72756 0.344344 -0.799415 1.72783 0.394513 -0.775886 1.7224 0.528254 -0.691803 1.72197 0.41237 -0.766545 -13.7419 8.60363 2.61787 -13.883 14.7991 5.18027 -0.0 0.0 -0.0 -1.00242 23.3073 1.3218 -22.1685 -28.2287 69.4165 0.192142 -5.43727 0.00912381 -43.5527 -3.33667 4.30398 2.19379 11.7853 19.1579 -0.0 0.0 -0.0 12.7104 3.16063 -25.6411 5.59949 20.6838 -63.3747 0.973113 25.736 -0.222306 -84.3948 8.37619 -5.19905 -12.2896 -33.6617 67.2751 0.0 0.0 0.0 28.8936 -2.6114 -10.8557 -26.0905 0.173848 3.9656 24.8948 -10.3951 -3.47051 -8.06683 0.0 0.0 -0.0 0.0 -0.0 -10.6512 -15.5703 -9.7057 -6.24645 -0.206325 -0.93597 35.53 5.13257 4.52691 -4.53189 0.0 0.0 0.0 0.0 0.0 
1540.02 659.291 -1562.33 -119.117 86.3073 121.987 1.812 0.381364 -0.832872 1.81228 0.433588 -0.806919 1.80607 0.571253 -0.716095 1.80564 0.450994 -0.797322 -16.0535 7.72867 1.83089 -16.2312 13.7646 4.44623 -0.0 0.0 -0.0 -0.549052 24.5431 2.09843 -24.265 -26.8948 68.5712 0.1861 -5.26726 0.00856023 -43.7529 -3.35883 4.31698 2.49264 13.9242 21.8767 -0.0 0.0 -0.0 12.5185 3.28624 -25.2233 8.93442 20.356 -64.611 0.897646 23.9729 -0.190582 -84.4113 8.37826 -5.19867 -12.2059 -33.5461 66.1985 0.0 0.0 0.0 32.0127 -3.38837 -10.9552 -26.2796 0.168494 3.99412 20.5054 -8.90546 -2.90502 -9.32661 0.0 0.0 -0.0 0.0 -0.0 -11.9987 -15.9304 -10.0582 -3.44364 -0.126389 -0.5133 34.7671 4.6509 4.44622 -6.07265 0.0 0.0 0.0 0.0 0.0 
